<!DOCTYPE svg PUBLIC "-//W3C//DTD SVG 1.1//EN" "http://www.w3.org/Graphics/SVG/1.1/DTD/svg11.dtd">
<svg version="1.1" xmlns="http://www.w3.org/2000/svg" xmlns:xlink="http://www.w3.org/1999/xlink" width="100%" height="100%" viewBox="-4 -2 108 144">
 <title>Some data flows and storage levels in the Git revision control system</title>
 <desc>Some data flows and storage levels in the Git revision control system, drawn by CMG Lee.</desc>
 <defs>
  <linearGradient id="gradient_linear" x1="0%" y1="0%" x2="0%" y2="100%">
   <stop offset="0%" stop-color="#ffffff" stop-opacity="1"/>
   <stop offset="100%" stop-color="#000000" stop-opacity="0"/>
  </linearGradient>
  <radialGradient id="gradient_radial" cx="50%" cy="50%" r="50%" fx="25%" fy="25%">
   <stop offset="0%" stop-color="#ffffff"/>
   <stop offset="100%" stop-color="#dddddd"/>
  </radialGradient>
  <ellipse id="cloud" cx="0" cy="0" rx="16" ry="8" fill="url(#gradient_radial)"/>
  <path id="arrow" d="M -2 -5 L 0 0 L 2 -5" stroke="#000000" fill="none"/>
  <rect id="remote" x="0" y="0" width="100" height="20" rx="5" ry="5" stroke="#000000" stroke-width="0.5"/>
  <rect id="local" x="20" y="50" width="80" height="20" rx="5" ry="5" stroke="#000000" stroke-width="0.5"/>
  <rect id="index" x="40" y="85" width="60" height="20" rx="5" ry="5" stroke="#000000" stroke-width="0.5"/>
  <rect id="work" x="0" y="120" width="100" height="20" rx="5" ry="5" stroke="#000000" stroke-width="0.5"/>
 </defs>
 <g id="main" font-family="sans-serif" font-size="8" text-anchor="middle" stroke-linecap="round">
  <use xlink:href="#cloud" transform="translate(47,30)"/>
  <use xlink:href="#cloud" transform="translate(17,34)"/>
  <use xlink:href="#cloud" transform="translate(30,34)"/>
  <use xlink:href="#cloud" transform="translate(75,33)"/>
  <use xlink:href="#cloud" transform="translate(56,36)"/>

  <g stroke="#000000" fill="none">
   <path d="M 5 30 V 40 M 25 30 V 40 M 65 30 V 40" stroke-dasharray="0.1,1.5"/>
   <path d="M 5 20 V 30 M 5 40 V 120 M 5 50 Q 5 60 15 60 H 20 M 25 20 V 30 M 25 40 V 120 M 65 20 V 30 M 65 40 V 120"/>
  </g>
  <use xlink:href="#arrow" transform="translate(20,60) rotate(270)"/>
  <use xlink:href="#arrow" transform="translate(5,120)"/>
  <text x="6" y="48" text-anchor="start">pull</text>
  <use xlink:href="#arrow" transform="translate(25,50)"/>
  <text x="26" y="112" text-anchor="start"><tspan letter-spacing="-0.5">checkout</tspan><tspan x="30" dy="7">HEAD</tspan></text>
  <use xlink:href="#arrow" transform="translate(25,120)"/>
  <text x="28" y="48" text-anchor="start">fetch</text>
  <use xlink:href="#arrow" transform="translate(65,20) scale(1,-1)"/>
  <text x="66" y="48" text-anchor="start">push</text>
  <use xlink:href="#arrow" transform="translate(65,70) scale(1,-1)"/>
  <text x="66" y="81" text-anchor="start">commit</text>
  <use xlink:href="#arrow" transform="translate(65,105) scale(1,-1)"/>
  <text x="66" y="117" text-anchor="start">add</text>

  <use xlink:href="#remote" fill="#66ccff"/>
  <use xlink:href="#remote" fill="url(#gradient_linear)"/>
  <text x="50" y="12">Remote repository</text>
  <use xlink:href="#local" fill="#66cc66"/>
  <use xlink:href="#local" fill="url(#gradient_linear)"/>
  <text x="60" y="62">Local repository</text>
  <use xlink:href="#index" fill="#ffcc66"/>
  <use xlink:href="#index" fill="url(#gradient_linear)"/>
  <text x="70" y="97">Index (cache)</text>
  <use xlink:href="#work" fill="#ff6666"/>
  <use xlink:href="#work" fill="url(#gradient_linear)"/>
  <text x="50" y="132">Working directory</text>
 </g>
</svg>
